<svg class="svg-icon" style="width: 1em;height: 1em;vertical-align: middle;fill: currentColor;overflow: hidden;" viewBox="0 0 1024 1024" version="1.1" xmlns="http://www.w3.org/2000/svg"><path d="M674.9952 64L960 206.592V960H674.9952v-896z m118.8352 153.728h-43.8528v245.6832h43.8528V217.728z m0 336.4608h-43.8528v245.6832h43.8528v-245.6832z m117.9392-260.7872h-43.8528v245.6832h43.8528v-245.6832z m0 336.4608h-43.8528V875.52h43.8528v-245.6832zM479.232 339.456l-0.4608-0.2048-0.2048-199.6032 152.576-75.6736v896h-151.04l-1.1008-471.3728 0.2304-149.1456z m-155.4432-31.7696l111.1552 55.1936 0.2048 126.5152-1.1008 470.5792h-110.2592V307.712z m-43.8528 0.1792V960H64V415.9488l215.936-108.032z"  /></svg>